<svg width="170" height="29" viewBox="0 0 170 29" fill="none" xmlns="http://www.w3.org/2000/svg">
<g clip-path="url(#clip0_1_194)">
<path d="M8.03559 13.7303C7.75201 13.7385 7.45071 13.7153 7.2935 13.6106C7.13623 13.5063 6.9467 13.1969 6.75564 12.9479C5.86149 11.784 4.27586 11.2973 2.83948 11.8564C1.09553 12.5349 0.232597 14.4993 0.911483 16.2428C1.59037 17.9868 3.55396 18.8501 5.29791 18.1712C6.1601 17.8354 6.80636 17.1852 7.15795 16.4026C7.2171 16.2704 7.24979 16.1962 7.35006 16.0978C7.45071 15.9993 7.65532 15.9368 7.81923 15.903C8.78175 15.7043 9.59033 15.6973 10.267 15.7998L10.386 15.478C10.4243 15.3711 10.6576 14.7149 11.0021 13.7495C10.2031 13.7575 9.05247 13.701 8.03559 13.7303ZM4.73295 16.7208C3.79062 17.0874 2.72893 16.6209 2.36189 15.6782C1.99527 14.7355 2.46184 13.6741 3.40412 13.3071C4.34682 12.9398 5.40815 13.4067 5.77556 14.349C6.14218 15.2917 5.6756 16.3534 4.73295 16.7208Z" fill="white"/>
<path d="M27.2409 9.92095C27.0418 9.40882 26.4298 9.3522 24.9132 9.74645C24.0918 9.95991 20.295 11.1017 16.9828 12.1046C16.6562 13.8034 16.3612 15.3279 16.1885 16.2185C19.5566 14.6013 24.7244 12.1123 25.6435 11.6241C27.0279 10.8886 27.4408 10.433 27.2409 9.92095Z" fill="white"/>
<path d="M16.4948 21.7192C16.2273 21.555 15.9 21.3988 15.7794 21.2533C15.6593 21.1075 15.6049 20.8103 15.5836 20.5274C15.4786 19.1409 15.1869 17.5193 15.2232 16.8647C15.2232 16.8647 17.5524 4.87513 17.7864 3.32556C18.0204 1.77557 17.9003 1.17313 17.3706 1.02799C16.8405 0.883273 16.4304 1.34105 15.843 2.79398C15.256 4.24733 11.1602 15.7534 11.1602 15.7534C11.1602 15.7534 13.8581 16.8235 13.4449 20.969C13.4283 21.1351 13.3876 21.3452 13.3001 21.4554C13.2127 21.566 13.1425 21.606 13.0172 21.6788C12.2755 22.1094 11.6962 22.8202 11.4522 23.7129C10.9585 25.5178 12.0217 27.3811 13.8262 27.8749C15.6315 28.3683 17.4948 27.3051 17.9881 25.5002C18.3948 24.0134 17.7452 22.487 16.4948 21.7192ZM13.3368 15.7792C12.9951 15.6859 12.7938 15.3336 12.8875 14.9919C12.9808 14.6503 13.3331 14.4489 13.6748 14.5422C14.0165 14.6359 14.2174 14.9886 14.1241 15.3299C14.0308 15.6715 13.6781 15.8724 13.3368 15.7792ZM16.4866 25.0895C16.2199 26.0652 15.2126 26.6398 14.2368 26.373C13.2611 26.1063 12.6865 25.099 12.9532 24.1232C13.22 23.1475 14.2277 22.5729 15.2031 22.84C16.1788 23.1064 16.7534 24.1141 16.4866 25.0895Z" fill="#CFA473"/>
</g>
<path d="M32.4083 22.5V6.06944H38.3938C39.2622 6.06944 40.0446 6.2494 40.741 6.6093C41.4451 6.96139 42.0006 7.46995 42.4075 8.135C42.8222 8.79222 43.0295 9.57072 43.0295 10.4705C43.0295 10.8695 42.9708 11.2725 42.8535 11.6793C42.7361 12.0862 42.5562 12.4539 42.3136 12.7825C42.0711 13.1033 41.7581 13.3419 41.3747 13.4984C41.8833 13.6236 42.298 13.8505 42.6188 14.1791C42.9395 14.5077 43.1899 14.895 43.3699 15.341C43.5498 15.7791 43.6711 16.229 43.7337 16.6906C43.8041 17.1444 43.8393 17.5669 43.8393 17.9581C43.8393 18.8266 43.6241 19.6012 43.1938 20.2819C42.7635 20.9626 42.1845 21.5024 41.4569 21.9015C40.7371 22.3005 39.939 22.5 39.0627 22.5H32.4083ZM35.2719 20.0472H38.7693C39.2388 20.0472 39.6613 19.9337 40.0368 19.7068C40.4124 19.4799 40.7136 19.1669 40.9405 18.7679C41.1674 18.3689 41.2808 17.9151 41.2808 17.4065C41.2808 16.9684 41.1674 16.5537 40.9405 16.1625C40.7136 15.7713 40.4124 15.4544 40.0368 15.2119C39.6613 14.9693 39.2388 14.8481 38.7693 14.8481H35.2719V20.0472ZM35.2719 12.4304H38.0651C38.6441 12.4304 39.137 12.2505 39.5439 11.8906C39.9586 11.5306 40.1659 11.0534 40.1659 10.4587C40.1659 9.825 39.9586 9.34773 39.5439 9.02694C39.137 8.69833 38.6441 8.53403 38.0651 8.53403H35.2719V12.4304ZM54.4146 10.7639H57.2783V22.5H54.4146L54.2855 21.0447C53.9648 21.5689 53.5383 21.9953 53.0063 22.324C52.4821 22.6447 51.8601 22.8051 51.1403 22.8051C50.2718 22.8051 49.4581 22.6408 48.6992 22.3122C47.9402 21.9836 47.2713 21.5298 46.6923 20.9508C46.1211 20.3719 45.6712 19.7029 45.3426 18.944C45.0218 18.185 44.8614 17.3713 44.8614 16.5028C44.8614 15.6657 45.014 14.8794 45.3192 14.1439C45.6321 13.4084 46.0664 12.7629 46.6219 12.2074C47.1774 11.6519 47.8189 11.2177 48.5466 10.9047C49.2742 10.5918 50.0566 10.4353 50.8938 10.4353C51.6684 10.4353 52.3608 10.6074 52.9711 10.9517C53.5892 11.2959 54.1134 11.7341 54.5437 12.2661L54.4146 10.7639ZM51.0699 20.0472C51.6801 20.0472 52.22 19.8946 52.6894 19.5894C53.1589 19.2843 53.5266 18.8735 53.7926 18.3572C54.0586 17.8329 54.1917 17.2579 54.1917 16.6319C54.1917 15.9982 54.0586 15.4231 53.7926 14.9067C53.5266 14.3825 53.155 13.9678 52.6777 13.6627C52.2083 13.3576 51.6723 13.205 51.0699 13.205C50.4674 13.205 49.9158 13.3615 49.4151 13.6744C48.9221 13.9796 48.527 14.3903 48.2297 14.9067C47.9402 15.4231 47.7955 15.9982 47.7955 16.6319C47.7955 17.2657 47.9441 17.8408 48.2414 18.3572C48.5388 18.8735 48.9339 19.2843 49.4268 19.5894C49.9275 19.8946 50.4752 20.0472 51.0699 20.0472ZM59.6286 22.5L59.6169 10.7639H62.4805L62.4922 11.8084C62.8912 11.3859 63.3685 11.0534 63.924 10.8108C64.4795 10.5605 65.0781 10.4353 65.7196 10.4353C66.15 10.4353 66.5803 10.4979 67.0106 10.6231L65.8839 13.5101C65.5866 13.3928 65.2893 13.3341 64.992 13.3341C64.5304 13.3341 64.1079 13.4475 63.7245 13.6744C63.3489 13.8935 63.0477 14.1947 62.8208 14.5781C62.6017 14.9537 62.4922 15.3723 62.4922 15.8339V22.5H59.6286ZM74.5709 10.4353C75.7132 10.4353 76.7538 10.713 77.6927 11.2685C78.6316 11.8241 79.3788 12.5712 79.9343 13.5101C80.4898 14.4412 80.7675 15.474 80.7675 16.6085C80.7675 17.4613 80.6071 18.2633 80.2864 19.0144C79.9656 19.7655 79.5196 20.4266 78.9484 20.9978C78.3851 21.5611 77.7279 22.0032 76.9768 22.324C76.2335 22.6447 75.4315 22.8051 74.5709 22.8051C73.8354 22.8051 73.1821 22.6408 72.6109 22.3122C72.0476 21.9758 71.5742 21.5416 71.1909 21.0095V22.5H68.3273V4.89583H71.1909V12.2309C71.5742 11.6989 72.0476 11.2685 72.6109 10.9399C73.1821 10.6035 73.8354 10.4353 74.5709 10.4353ZM74.5357 20.0354C75.1459 20.0354 75.6975 19.8828 76.1905 19.5777C76.6912 19.2647 77.0902 18.8501 77.3875 18.3337C77.6848 17.8173 77.8335 17.2422 77.8335 16.6085C77.8335 15.9825 77.6848 15.4114 77.3875 14.895C77.0902 14.3708 76.6912 13.9561 76.1905 13.651C75.6897 13.3458 75.1381 13.1933 74.5357 13.1933C73.941 13.1933 73.409 13.3497 72.9395 13.6627C72.4701 13.9678 72.1024 14.3825 71.8364 14.9067C71.5703 15.4231 71.4373 15.9904 71.4373 16.6085C71.4373 17.2422 71.5703 17.8212 71.8364 18.3454C72.1024 18.8618 72.4701 19.2726 72.9395 19.5777C73.409 19.8828 73.941 20.0354 74.5357 20.0354ZM82.3556 10.7639H85.2192V22.5H82.3556V10.7639ZM83.8109 9.24993C83.3884 9.24993 83.0324 9.11301 82.7429 8.83917C82.4534 8.5575 82.3086 8.20542 82.3086 7.78292C82.3086 7.36824 82.4534 7.02007 82.7429 6.7384C83.0324 6.45673 83.3844 6.3159 83.7991 6.3159C84.2138 6.3159 84.562 6.45673 84.8436 6.7384C85.1331 7.02007 85.2779 7.36824 85.2779 7.78292C85.2779 8.20542 85.137 8.5575 84.8554 8.83917C84.5737 9.11301 84.2255 9.24993 83.8109 9.24993ZM98.6988 15.0828V22.5H95.8352V15.8339C95.8352 15.3723 95.7218 14.9537 95.4949 14.5781C95.268 14.1947 94.9629 13.8935 94.5795 13.6744C94.2039 13.4475 93.7853 13.3341 93.3237 13.3341C92.8621 13.3341 92.4396 13.4475 92.0562 13.6744C91.6807 13.8935 91.3794 14.1947 91.1525 14.5781C90.9335 14.9537 90.8239 15.3723 90.8239 15.8339V22.5H87.9603L87.9486 10.7639H90.8122L90.8239 11.8084C91.2229 11.3859 91.7002 11.0534 92.2557 10.8108C92.8112 10.5605 93.4098 10.4353 94.0513 10.4353C94.9042 10.4353 95.6827 10.6465 96.3868 11.069C97.091 11.4837 97.6504 12.0431 98.0651 12.7473C98.4876 13.4436 98.6988 14.2221 98.6988 15.0828ZM109.516 10.7639H112.38V22.723C112.38 23.568 112.208 24.3347 111.863 25.0233C111.519 25.7196 111.05 26.3142 110.455 26.8072C109.86 27.3079 109.18 27.6913 108.413 27.9573C107.646 28.2311 106.84 28.3681 105.995 28.3681C105.174 28.3681 104.383 28.1998 103.625 27.8634C102.866 27.527 102.193 27.0653 101.606 26.4785C101.027 25.8996 100.585 25.2384 100.28 24.4951L102.897 23.3098C103.053 23.7401 103.288 24.1157 103.601 24.4365C103.922 24.7651 104.29 25.0194 104.704 25.1993C105.119 25.3871 105.549 25.481 105.995 25.481C106.449 25.481 106.883 25.4184 107.298 25.2932C107.72 25.168 108.1 24.9841 108.436 24.7416C108.773 24.5069 109.035 24.2174 109.223 23.8731C109.418 23.5367 109.516 23.1533 109.516 22.723V21.0682C109.148 21.5846 108.687 22.0032 108.131 22.324C107.576 22.6447 106.934 22.8051 106.206 22.8051C105.361 22.8051 104.571 22.6447 103.836 22.324C103.1 22.0032 102.451 21.5611 101.888 20.9978C101.332 20.4266 100.894 19.7694 100.573 19.0261C100.26 18.2828 100.104 17.4848 100.104 16.6319C100.104 15.7791 100.26 14.9811 100.573 14.2378C100.894 13.4945 101.332 12.8412 101.888 12.2778C102.451 11.7067 103.1 11.2607 103.836 10.9399C104.571 10.6191 105.361 10.4587 106.206 10.4587C106.934 10.4587 107.576 10.6191 108.131 10.9399C108.687 11.2529 109.148 11.6676 109.516 12.184V10.7639ZM106.242 20.0472C106.844 20.0472 107.376 19.8946 107.838 19.5894C108.307 19.2765 108.675 18.8618 108.941 18.3454C109.207 17.8212 109.34 17.25 109.34 16.6319C109.34 16.006 109.203 15.4349 108.929 14.9185C108.663 14.4021 108.296 13.9874 107.826 13.6744C107.364 13.3615 106.836 13.205 106.242 13.205C105.655 13.205 105.119 13.3615 104.634 13.6744C104.149 13.9796 103.761 14.3903 103.472 14.9067C103.182 15.4231 103.038 15.9982 103.038 16.6319C103.038 17.2657 103.182 17.8408 103.472 18.3572C103.761 18.8735 104.149 19.2843 104.634 19.5894C105.119 19.8946 105.655 20.0472 106.242 20.0472ZM120.842 22.5V6.06944H123.705V19.6364H130.548V22.5H120.842ZM131.673 18.1576V10.7639H134.537V17.4065C134.537 17.8681 134.65 18.2906 134.877 18.674C135.104 19.0496 135.405 19.3508 135.781 19.5777C136.164 19.7968 136.583 19.9063 137.036 19.9063C137.506 19.9063 137.928 19.7968 138.304 19.5777C138.679 19.3508 138.981 19.0496 139.207 18.674C139.434 18.2906 139.548 17.8681 139.548 17.4065V10.7639H142.411L142.423 22.5H139.56L139.548 21.432C139.141 21.8545 138.66 22.1909 138.104 22.4413C137.549 22.6839 136.954 22.8051 136.32 22.8051C135.468 22.8051 134.689 22.5978 133.985 22.1831C133.281 21.7606 132.717 21.2012 132.295 20.5049C131.88 19.8007 131.673 19.0183 131.673 18.1576ZM144.303 22.5L148.598 16.6085L144.338 10.7522H147.871L150.359 14.1674L152.859 10.7522H156.391L152.131 16.6085L156.426 22.5H152.894L150.359 19.0261L147.836 22.5H144.303ZM162.727 22.8051C161.647 22.8051 160.661 22.5274 159.769 21.9719C158.885 21.4164 158.177 20.6692 157.645 19.7303C157.121 18.7914 156.859 17.7547 156.859 16.6202C156.859 15.7674 157.011 14.9693 157.317 14.226C157.622 13.4749 158.04 12.8177 158.572 12.2544C159.112 11.6832 159.738 11.2372 160.45 10.9165C161.162 10.5957 161.921 10.4353 162.727 10.4353C163.642 10.4353 164.479 10.6309 165.238 11.0221C166.005 11.4055 166.655 11.9336 167.187 12.6065C167.719 13.2793 168.106 14.0461 168.348 14.9067C168.591 15.7674 168.646 16.6672 168.513 17.606H159.934C160.043 18.0442 160.223 18.4393 160.474 18.7914C160.724 19.1356 161.041 19.4134 161.424 19.6247C161.808 19.8281 162.242 19.9337 162.727 19.9415C163.228 19.9494 163.681 19.832 164.088 19.5894C164.503 19.3391 164.847 19.0026 165.121 18.5801L168.043 19.2608C167.566 20.3014 166.854 21.1543 165.907 21.8193C164.961 22.4765 163.9 22.8051 162.727 22.8051ZM159.84 15.4583H165.614C165.528 14.9889 165.344 14.5664 165.062 14.1908C164.788 13.8075 164.448 13.5023 164.041 13.2754C163.634 13.0485 163.196 12.9351 162.727 12.9351C162.257 12.9351 161.823 13.0485 161.424 13.2754C161.025 13.4945 160.685 13.7957 160.403 14.1791C160.129 14.5547 159.941 14.9811 159.84 15.4583Z" fill="white"/>
<defs>
<clipPath id="clip0_1_194">
<rect width="26.9931" height="26.9931" fill="white" transform="translate(0.486328 1.00342)"/>
</clipPath>
</defs>
</svg>
