<svg width="24" height="24" viewBox="0 0 24 24" fill="none" xmlns="http://www.w3.org/2000/svg">
<path d="M2.00586 12.006C2.00586 8.23474 2.00586 6.34913 3.17743 5.17755C4.34901 4.00598 6.23462 4.00598 10.0059 4.00598H14.0059C17.7771 4.00598 19.6628 4.00598 20.8343 5.17755C22.0059 6.34913 22.0059 8.23474 22.0059 12.006V14.006C22.0059 17.7772 22.0059 19.6629 20.8343 20.8344C19.6628 22.006 17.7771 22.006 14.0059 22.006H10.0059C6.23462 22.006 4.34901 22.006 3.17743 20.8344C2.00586 19.6629 2.00586 17.7772 2.00586 14.006V12.006Z" stroke="#181003" stroke-width="1.5"/>
<path d="M7.00781 3.99902V2.49902" stroke="#181003" stroke-width="1.5" stroke-linecap="round"/>
<path d="M17.002 3.99902V2.49902" stroke="#181003" stroke-width="1.5" stroke-linecap="round"/>
<path d="M2.50391 8.99707H21.5039" stroke="#181003" stroke-width="1.5" stroke-linecap="round"/>
<path d="M18.0107 16.9995C18.0107 17.5518 17.563 17.9995 17.0107 17.9995C16.4584 17.9995 16.0107 17.5518 16.0107 16.9995C16.0107 16.4472 16.4584 15.9995 17.0107 15.9995C17.563 15.9995 18.0107 16.4472 18.0107 16.9995Z" fill="#181003"/>
<path d="M18.0107 13.0112C18.0107 13.5635 17.563 14.0112 17.0107 14.0112C16.4584 14.0112 16.0107 13.5635 16.0107 13.0112C16.0107 12.4589 16.4584 12.0112 17.0107 12.0112C17.563 12.0112 18.0107 12.4589 18.0107 13.0112Z" fill="#181003"/>
<path d="M13.0078 16.9995C13.0078 17.5518 12.5601 17.9995 12.0078 17.9995C11.4555 17.9995 11.0078 17.5518 11.0078 16.9995C11.0078 16.4472 11.4555 15.9995 12.0078 15.9995C12.5601 15.9995 13.0078 16.4472 13.0078 16.9995Z" fill="#181003"/>
<path d="M13.0078 13.0112C13.0078 13.5635 12.5601 14.0112 12.0078 14.0112C11.4555 14.0112 11.0078 13.5635 11.0078 13.0112C11.0078 12.4589 11.4555 12.0112 12.0078 12.0112C12.5601 12.0112 13.0078 12.4589 13.0078 13.0112Z" fill="#181003"/>
<path d="M8.01074 16.9995C8.01074 17.5518 7.56302 17.9995 7.01074 17.9995C6.45846 17.9995 6.01074 17.5518 6.01074 16.9995C6.01074 16.4472 6.45846 15.9995 7.01074 15.9995C7.56302 15.9995 8.01074 16.4472 8.01074 16.9995Z" fill="#181003"/>
<path d="M8.01074 13.0112C8.01074 13.5635 7.56302 14.0112 7.01074 14.0112C6.45846 14.0112 6.01074 13.5635 6.01074 13.0112C6.01074 12.4589 6.45846 12.0112 7.01074 12.0112C7.56302 12.0112 8.01074 12.4589 8.01074 13.0112Z" fill="#181003"/>
</svg>
