<svg width="79" height="79" viewBox="0 0 79 79" fill="none" xmlns="http://www.w3.org/2000/svg">
<g clip-path="url(#clip0_1_214)">
<path d="M19.959 57.6302C24.0956 59.3411 28.8379 57.3761 30.5498 53.2392C31.3978 51.1917 31.3427 48.9996 30.572 47.0959C30.4411 46.7752 30.367 46.5965 30.3625 46.2607C30.3593 45.9232 30.5904 45.4658 30.8022 45.1273C32.248 42.8225 33.7943 41.2946 35.2782 40.2858C34.3523 37.6032 32.5683 36.5235 32.4809 36.4727L32.139 36.283C30.8322 37.6536 28.9519 39.4454 27.4054 41.1578C26.9507 41.6602 26.4116 42.1439 25.9699 42.2431C25.5282 42.3422 24.681 42.158 23.9343 42.076C20.4429 41.6961 16.9765 43.6304 15.5676 47.0387C13.8558 51.1754 15.8219 55.9174 19.959 57.6302ZM19.0092 48.4628C19.9345 46.2267 22.4982 45.1638 24.7342 46.0891C26.972 47.0137 28.035 49.5775 27.1079 51.8141C26.1825 54.0502 23.6189 55.1131 21.3829 54.1878C19.1469 53.2625 18.084 50.6987 19.0092 48.4628Z" fill="#CFA473"/>
<path d="M37.3173 47.8235C37.2283 48.2137 37.0677 48.7008 36.8271 48.9353C36.5873 49.1714 36.4084 49.2446 36.0895 49.38C34.2007 50.1817 32.6113 51.6954 31.7645 53.7413C30.0531 57.8791 32.0187 62.6201 36.1559 64.333C37.5713 64.9179 39.0573 65.0736 40.4699 64.8577C42.0764 68.2279 43.9725 69.7024 43.9725 69.7024L46.1085 67.9776C44.4935 66.6612 43.5354 64.2455 43.377 63.8234C44.8423 62.9599 46.047 61.6328 46.7485 59.9413C48.1579 56.5338 47.072 52.7156 44.3331 50.5173C43.7468 50.0476 43.0179 49.5791 42.7746 49.1972C42.5331 48.8145 42.4932 48.0934 42.5269 47.4153C42.6929 44.0924 42.4858 40.1545 42.7682 38.6119C42.7682 38.6119 51.8885 10.844 52.9071 7.23396C53.9261 3.62474 53.8221 2.15949 52.6066 1.65642C51.3927 1.15267 50.282 2.11669 48.4527 5.39066C46.6241 8.66625 33.4542 34.7575 33.4542 34.7575C33.4542 34.7575 39.5389 38.1046 37.3173 47.8235ZM43.3052 58.5177C42.3799 60.7538 39.818 61.816 37.5801 60.8914C35.3437 59.9652 34.2808 57.4016 35.2064 55.1663C36.1331 52.9287 38.6951 51.8665 40.9312 52.7918C43.1689 53.7165 44.2318 56.2801 43.3052 58.5177ZM37.7835 33.4659C38.1075 32.6831 39.0056 32.3107 39.7867 32.6354C40.5695 32.9593 40.9413 33.8559 40.6173 34.6387C40.2951 35.4208 39.3969 35.7932 38.6141 35.4693C37.8313 35.1453 37.4596 34.2488 37.7835 33.4659Z" fill="#CFA473"/>
</g>
<defs>
<clipPath id="clip0_1_214">
<rect width="60" height="60" fill="white" transform="translate(78.4062 55.4258) rotate(157.481)"/>
</clipPath>
</defs>
</svg>
