<svg width="24" height="24" viewBox="0 0 24 24" fill="none" xmlns="http://www.w3.org/2000/svg">
<path d="M8.92617 19.4227C11.3286 19.4227 13.2762 17.4751 13.2762 15.0727C13.2762 12.6702 11.3286 10.7227 8.92617 10.7227C6.52373 10.7227 4.57617 12.6702 4.57617 15.0727C4.57617 17.4751 6.52373 19.4227 8.92617 19.4227Z" stroke="white" stroke-width="1.5" stroke-miterlimit="10"/>
<path d="M2.92383 17.5477L4.94883 16.7227" stroke="white" stroke-width="1.5" stroke-miterlimit="10"/>
<path d="M12.9023 13.4227L14.9273 12.5977" stroke="white" stroke-width="1.5" stroke-miterlimit="10"/>
<path d="M6.45117 9.07617L7.27617 11.1012" stroke="white" stroke-width="1.5" stroke-miterlimit="10"/>
<path d="M10.5762 19.0488L11.4012 21.0738" stroke="white" stroke-width="1.5" stroke-miterlimit="10"/>
<path d="M2.92383 12.5977L4.94883 13.4227" stroke="white" stroke-width="1.5" stroke-miterlimit="10"/>
<path d="M12.9023 16.7227L14.9273 17.5477" stroke="white" stroke-width="1.5" stroke-miterlimit="10"/>
<path d="M11.4012 9.07617L10.5762 11.1012" stroke="white" stroke-width="1.5" stroke-miterlimit="10"/>
<path d="M7.27617 19.0488L6.45117 21.0738" stroke="white" stroke-width="1.5" stroke-miterlimit="10"/>
<path d="M16.8727 10.6477C18.8195 10.6477 20.3977 9.06946 20.3977 7.12266C20.3977 5.17585 18.8195 3.59766 16.8727 3.59766C14.9259 3.59766 13.3477 5.17585 13.3477 7.12266C13.3477 9.06946 14.9259 10.6477 16.8727 10.6477Z" stroke="white" stroke-width="1.5" stroke-miterlimit="10"/>
<path d="M13.125 10.8727L14.4 9.59766" stroke="white" stroke-width="1.5" stroke-miterlimit="10"/>
<path d="M19.3477 4.65117L20.5477 3.45117" stroke="white" stroke-width="1.5" stroke-miterlimit="10"/>
<path d="M13.125 3.45117L14.4 4.65117" stroke="white" stroke-width="1.5" stroke-miterlimit="10"/>
<path d="M19.3477 9.59766L20.5477 10.8727" stroke="white" stroke-width="1.5" stroke-miterlimit="10"/>
<path d="M11.625 7.125H13.35" stroke="white" stroke-width="1.5" stroke-miterlimit="10"/>
<path d="M20.4023 7.125H22.1273" stroke="white" stroke-width="1.5" stroke-miterlimit="10"/>
<path d="M16.875 1.875V3.6" stroke="white" stroke-width="1.5" stroke-miterlimit="10"/>
<path d="M16.875 10.6523V12.3773" stroke="white" stroke-width="1.5" stroke-miterlimit="10"/>
</svg>
